<?xml version="1.0" encoding="UTF-8"?>
<svg width="48px" height="48px" viewBox="0 0 48 48" version="1.1" xmlns="http://www.w3.org/2000/svg" xmlns:xlink="http://www.w3.org/1999/xlink">
    <title>Arrow</title>
    <g id="Arrow" stroke="none" stroke-width="1" fill="none" fill-rule="evenodd">
        <circle id="Oval" stroke="#AAAAAA" stroke-width="2" fill="#FFFFFF" cx="24" cy="24" r="23"></circle>
        <path d="M25.1501637,8.44176211 L35.523822,18.6509668 C36.1486609,19.2659001 36.1566909,20.270934 35.5417576,20.8957729 L35.4965222,20.9405755 C34.8738156,21.5534103 33.8746376,21.5534103 33.251931,20.9405755 L25.597,13.407 L25.5979053,38.4 C25.5979053,39.2836556 24.8815609,40 23.9979053,40 L23.9463585,40 C23.0627029,40 22.3463585,39.2836556 22.3463585,38.4 L22.346,13.462 L14.748069,20.9405755 C14.1253624,21.5534103 13.1261844,21.5534103 12.5034778,20.9405755 L12.476178,20.9137085 C11.8513391,20.2987752 11.8433091,19.2937413 12.4582424,18.6689024 L12.476178,18.6509668 L12.476178,18.6509668 L22.7482984,8.53947634 C22.8406684,8.43520498 22.9464416,8.34307957 23.062919,8.26579937 C23.3436909,8.07094453 23.6727206,7.97664379 24.0003257,7.98238296 C24.4151669,7.97536383 24.8318513,8.12849598 25.1501637,8.44176211 Z" id="Combined-Shape" fill="#4B4B4B"></path>
    </g>
</svg>