<?xml version="1.0" encoding="UTF-8"?>
<svg width="42px" height="42px" viewBox="0 0 42 42" version="1.1" xmlns="http://www.w3.org/2000/svg" xmlns:xlink="http://www.w3.org/1999/xlink">
    <title>r</title>
    <defs>
        <filter id="filter-1">
            <feColorMatrix in="SourceGraphic" type="matrix" values="0 0 0 0 0.000000 0 0 0 0 0.000000 0 0 0 0 0.000000 0 0 0 1.000000 0"></feColorMatrix>
        </filter>
    </defs>
    <g id="r" stroke="none" stroke-width="1" fill="none" fill-rule="evenodd">
        <circle id="Oval" stroke="#000000" stroke-width="2" fill-opacity="0" fill="#FFFFFF" cx="21" cy="21" r="19"></circle>
        <g id="Arrow---Round" transform="translate(8.050253, 7.000000)" filter="url(#filter-1)">
            <g>
                <path d="M12.9497475,0 C13.7914886,-1.54625337e-16 14.5522615,0.346666304 15.097082,0.905014812 L15.1213203,0.928932188 L25.0208153,10.8284271 C26.1923882,12 26.1923882,13.8994949 25.0208153,15.0710678 C23.8492424,16.2426407 21.9497475,16.2426407 20.7781746,15.0710678 L20.7781746,15.0710678 L15.949,10.242 L15.9497475,25 C15.9497475,26.6568542 14.6066017,28 12.9497475,28 C11.2928932,28 9.94974747,26.6568542 9.94974747,25 L9.949,10.243 L5.12132034,15.0710678 C3.94974747,16.2426407 2.05025253,16.2426407 0.878679656,15.0710678 C-0.292893219,13.8994949 -0.292893219,12 0.878679656,10.8284271 L10.7781746,0.928932188 L10.8024129,0.905014812 C11.3472335,0.346666304 12.1080063,1.54625337e-16 12.9497475,0 Z" id="Combined-Shape" fill="#D8D8D8"></path>
            </g>
        </g>
    </g>
</svg>