<?xml version="1.0" encoding="UTF-8"?>
<svg width="32px" height="33px" viewBox="0 0 32 33" version="1.1" xmlns="http://www.w3.org/2000/svg" xmlns:xlink="http://www.w3.org/1999/xlink">
    <title>Bot</title>
    <g id="Page-1" stroke="none" stroke-width="1" fill="none" fill-rule="evenodd">
        <g id="Mobile" transform="translate(-272.000000, -1965.000000)">
            <g id="Bot" transform="translate(272.000000, 1965.000000)">
                <g id="Heart" transform="translate(17.562500, 0.000000)" fill="#818181" fill-rule="nonzero">
                    <path d="M10.9097018,2.28661674 C11.6305106,4.83779162 10.1784285,7.19594845 7.93757018,8.31210836 L7.9375,6.65625 C7.9375,5.5689394 7.0560606,4.6875 5.96875,4.6875 C4.8814394,4.6875 4,5.5689394 4,6.65625 L4,6.65625 L3.99929219,8.2543508 C1.82302275,7.11603925 0.431693757,4.79459662 1.14029822,2.28661674 C1.59642095,0.672251184 3.27488334,-0.266690141 4.88924889,0.189432589 C5.29284028,0.303463272 5.65421765,0.493890183 5.96213664,0.740612753 L6.025,0.794 L6.08786336,0.740612753 C6.35179392,0.529136265 6.65500003,0.359019852 6.99040069,0.2429216 L7.16075111,0.189432589 C8.77511666,-0.266690141 10.4535791,0.672251184 10.9097018,2.28661674 Z" id="Combined-Shape"></path>
                </g>
                <g id="empatheticbot" transform="translate(0.187500, 5.250000)" fill="#A2A2A2">
                    <path d="M23.4099265,0 C24.1500286,8.60900412e-17 24.75,0.599971355 24.75,1.34007353 L24.75,5.40992647 C24.75,5.47142889 24.7458568,5.53196363 24.7378344,5.59126679 C26.1471189,6.18329505 27.086323,6.64194276 27.086323,6.64194276 C28.1611721,7.12462916 29.257635,8.45303779 29.5461749,9.59528698 C29.5461749,9.59528698 30.2207184,11.5173955 30.3541221,15.5296392 C30.4867974,19.5199728 29.9437346,21.4361318 29.9437346,21.4361318 C29.746532,22.5946561 28.6530259,23.8389563 27.5392926,24.2173389 C27.5392926,24.2173389 19.9021022,27 15.1876199,27 C10.4731376,27 2.83594728,24.2173389 2.83594728,24.2173389 C1.71869906,23.8445416 0.6450289,22.5933963 0.429987157,21.4353029 C0.429987157,21.4353029 -0.112286432,19.5418952 0.0211177176,15.5296392 C0.154521868,11.5173831 0.829065104,9.59528284 0.829065104,9.59528284 C1.10162564,8.44890616 2.21891803,7.13078054 3.28891679,6.64194276 C3.28891679,6.64194276 10.7626038,3.375 15.1876199,3.375 C17.1938445,3.375 19.8267405,3.74247922 22.1056735,4.56263644 L21.937,4.504 L21.9375,1.34007353 C21.9375,0.599971355 22.5374714,3.57999169e-16 23.2775735,0 L23.4099265,0 Z M9.33388222,9.12757732 C6.68875763,9.12757732 4.54446048,11.2773029 4.54446048,13.9291237 C4.54446048,16.5809446 6.68875763,18.7306701 9.33388222,18.7306701 C11.9790068,18.7306701 14.123304,16.5809446 14.123304,13.9291237 C14.123304,11.2773029 11.9790068,9.12757732 9.33388222,9.12757732 Z M21.0413576,9.12757732 C18.396233,9.12757732 16.2519359,11.2773029 16.2519359,13.9291237 C16.2519359,16.5809446 18.396233,18.7306701 21.0413576,18.7306701 C23.6864822,18.7306701 25.8307793,16.5809446 25.8307793,13.9291237 C25.8307793,11.2773029 23.6864822,9.12757732 21.0413576,9.12757732 Z" id="Combined-Shape"></path>
                </g>
            </g>
        </g>
    </g>
</svg>