<?xml version="1.0" encoding="UTF-8" standalone="no"?>
<!DOCTYPE svg PUBLIC "-//W3C//DTD SVG 1.1//EN" "http://www.w3.org/Graphics/SVG/1.1/DTD/svg11.dtd">
<svg width="100%" height="100%" viewBox="0 0 180 180" version="1.1" xmlns="http://www.w3.org/2000/svg" xmlns:xlink="http://www.w3.org/1999/xlink" xml:space="preserve" xmlns:serif="http://www.serif.com/" style="fill-rule:evenodd;clip-rule:evenodd;stroke-linecap:round;stroke-linejoin:round;stroke-miterlimit:1.5;">
    <g transform="matrix(18.7917,0,0,32.8222,6.72188,-8.75021)">
        <ellipse cx="4.432" cy="3.009" rx="4.789" ry="2.742" style="fill:white;fill-opacity:0.8;"/>
    </g>
    <g transform="matrix(0.234853,0,0,0.234853,-16.0776,-14.0768)">
        <g transform="matrix(1.81656,0,0,1.81656,-274.947,-101.811)">
            <circle cx="400" cy="300" r="201.582" style="fill:none;stroke:black;stroke-width:8px;"/>
        </g>
        <g transform="matrix(1.81656,0,0,1.81656,-274.947,-101.811)">
            <path d="M234.149,280.855C234.149,280.855 224.734,415.027 284.648,460.173C344.561,505.318 435.908,517.775 511.937,466.428C559.687,401.778 600.47,316.983 557.535,239.053C593.24,329.498 552.013,393.787 498.532,423.94C481.91,429.251 482.954,428.86 482.954,428.86C482.954,428.86 481.844,378.045 481.631,371.281C481.453,365.619 481.678,388.274 481.678,388.274L468.599,391.383L467.951,350.506L468.599,391.383L454.389,401.237L452.864,364.376L453.626,427.322C453.626,427.322 441.988,426.956 438.017,430.479C433.285,434.678 430.469,448.29 425.231,452.516C420.318,456.479 410.793,456.293 406.588,455.837C403.622,455.515 400,449.778 400,449.778L387.33,451.421C387.33,451.421 379.806,464.423 373.233,465.963C365.057,467.879 345.542,465.088 338.277,462.916C334.06,461.656 329.639,452.932 329.639,452.932C329.639,452.932 314.039,455.414 308.739,451.823C303.438,448.233 297.836,431.39 297.836,431.39C297.836,431.39 233.603,413.535 234.149,280.855Z" style="stroke:black;stroke-width:9.29px;"/>
        </g>
        <g transform="matrix(1.81656,0,0,1.81656,-235.167,-134.202)">
            <path d="M286.416,247.971L287.329,243.097L308.209,247.166C308.303,240.109 309.948,233.889 312.958,228.404C312.958,228.404 309.096,233.201 308.68,245.307C308.559,248.831 309.602,255.844 309.602,255.844L308.209,247.166L301.176,245.795C297.787,245.977 295.88,249.861 295.231,256.885C295.729,249.195 297.885,245.968 301.176,245.795C301.176,245.795 289.789,242.735 287.329,243.097C285.694,243.338 286.416,247.971 286.416,247.971Z" style="fill:none;stroke:black;stroke-width:9.29px;"/>
        </g>
    </g>
</svg>
