<?xml version="1.0" encoding="UTF-8" standalone="no"?><!DOCTYPE svg PUBLIC "-//W3C//DTD SVG 1.1//EN" "http://www.w3.org/Graphics/SVG/1.1/DTD/svg11.dtd"><svg width="100%" height="100%" viewBox="0 0 68 68" version="1.1" xmlns="http://www.w3.org/2000/svg" xmlns:xlink="http://www.w3.org/1999/xlink" xml:space="preserve" xmlns:serif="http://www.serif.com/" style="fill-rule:evenodd;clip-rule:evenodd;stroke-linecap:round;stroke-linejoin:round;stroke-miterlimit:1.5;"><g><circle cx="34" cy="34" r="31.987" style="fill:none;stroke:#000;stroke-width:2.95px;"/><path d="M7.683,30.962c-0,0 -1.494,21.29 8.013,28.454c9.507,7.164 24.002,9.14 36.066,0.993c7.577,-10.259 14.049,-23.714 7.236,-36.08c5.665,14.352 -0.877,24.553 -9.363,29.338c-2.638,0.842 -2.472,0.78 -2.472,0.78c0,0 -0.176,-8.063 -0.21,-9.136c-0.028,-0.899 0.008,2.696 0.008,2.696l-2.076,0.494l-0.102,-6.487l0.102,6.487l-2.255,1.563l-0.242,-5.849l0.121,9.988c0,0 -1.846,-0.058 -2.476,0.501c-0.751,0.667 -1.198,2.827 -2.029,3.497c-0.78,0.629 -2.291,0.6 -2.959,0.527c-0.47,-0.051 -1.045,-0.961 -1.045,-0.961l-2.011,0.26c0,0 -1.193,2.064 -2.236,2.308c-1.298,0.304 -4.394,-0.139 -5.547,-0.484c-0.669,-0.2 -1.371,-1.584 -1.371,-1.584c0,0 -2.475,0.394 -3.316,-0.176c-0.841,-0.569 -1.73,-3.242 -1.73,-3.242c-0,-0 -10.193,-2.833 -10.106,-23.887Z" style="stroke:#000;stroke-width:1.47px;"/><path d="M19.451,22.915l0.145,-0.774l3.314,0.646c0.014,-1.12 0.275,-2.107 0.753,-2.977c0,-0 -0.613,0.761 -0.679,2.682c-0.019,0.559 0.146,1.672 0.146,1.672l-0.22,-1.377l-1.116,-0.218c-0.538,0.029 -0.841,0.645 -0.944,1.76c0.079,-1.22 0.421,-1.732 0.944,-1.76c-0,0 -1.807,-0.485 -2.198,-0.428c-0.259,0.038 -0.145,0.774 -0.145,0.774Z" style="fill:none;stroke:#000;stroke-width:1.47px;"/></g></svg>