<?xml version="1.0" encoding="UTF-8"?>
<svg width="44px" height="38px" viewBox="0 0 44 38" version="1.1" xmlns="http://www.w3.org/2000/svg" xmlns:xlink="http://www.w3.org/1999/xlink">
    <title>Combined Shape</title>
    <g id="Page-1" stroke="none" stroke-width="1" fill="none" fill-rule="evenodd">
        <g id="Mobile" transform="translate(-114.000000, -1263.000000)" fill="#FFFFFF">
            <path d="M137.984556,1263.58929 C138.604681,1263.94364 139.118615,1264.45758 139.472973,1265.0777 L156.580254,1295.01544 C157.676294,1296.93351 157.009907,1299.37693 155.091837,1300.47297 C154.487446,1300.81834 153.803389,1301 153.107281,1301 L118.892719,1301 C116.68358,1301 114.892719,1299.20914 114.892719,1297 C114.892719,1296.30389 115.07438,1295.61984 115.419746,1295.01544 L132.527027,1265.0777 C133.623067,1263.15963 136.066486,1262.49325 137.984556,1263.58929 Z M138.246094,1291.04883 L134.171875,1291.04883 L134.171875,1295 L138.246094,1295 L138.246094,1291.04883 Z M138.355469,1274.91602 L134.076172,1274.91602 L134.076172,1280.0293 L135.210938,1289.43555 L137.248047,1289.43555 L138.355469,1280.0293 L138.355469,1274.91602 Z" id="Combined-Shape"></path>
        </g>
    </g>
</svg>